<?xml version="1.0" encoding="UTF-8"?>
<svg width="132px" height="35px" viewBox="0 0 132 35" version="1.1" xmlns="http://www.w3.org/2000/svg" xmlns:xlink="http://www.w3.org/1999/xlink">
    <title>ycode-filled</title>
    <g id="Branding" stroke="none" stroke-width="1" fill="none" fill-rule="evenodd">
        <g id="white/ycode-side-filled-copy" transform="translate(-145, -182)" fill="#000000">
            <path d="M160.160949,182 L160.160949,190.488471 L152.339,195.01 L161.886,200.526 L177,191.78118 L177,200.277589 L148.528174,216.751542 L148.492259,216.772309 L148.452863,216.747267 L145,214.557511 L145,206.285054 L148.483281,208.281091 L154.442,204.833 L145,199.254324 L145,190.77096 L160.160949,182 Z M189.789144,215 L192.544885,208.361169 L186,192.23382 L189.977035,192.23382 L194.392484,204.008351 L198.870564,192.23382 L202.753653,192.23382 L193.484342,215 L189.789144,215 Z M203.536534,200.375783 C203.536534,197.974936 204.298531,195.955123 205.822547,194.316284 C207.346563,192.677445 209.288088,191.858038 211.647182,191.858038 C213.881013,191.858038 215.660745,192.489555 216.98643,193.75261 C218.312115,195.015664 219.100208,196.471808 219.350731,198.121086 L215.530271,198.121086 C215.300625,197.223378 214.83612,196.503134 214.136743,195.960334 C213.437366,195.417534 212.597082,195.146138 211.615866,195.146138 C210.30062,195.146138 209.246351,195.631519 208.453027,196.602296 C207.659704,197.573074 207.263048,198.83089 207.263048,200.375783 C207.263048,201.920676 207.659704,203.173273 208.453027,204.133612 C209.246351,205.093951 210.30062,205.574113 211.615866,205.574113 C212.597082,205.574113 213.437366,205.302717 214.136743,204.759916 C214.83612,204.217116 215.300625,203.496873 215.530271,202.599165 L219.350731,202.599165 C219.100208,204.248442 218.312115,205.704587 216.98643,206.967641 C215.660745,208.230695 213.881013,208.862213 211.647182,208.862213 C209.288088,208.862213 207.346563,208.042806 205.822547,206.403967 C204.298531,204.765128 203.536534,202.755753 203.536534,200.375783 Z M229.68476,208.862213 C227.179528,208.862213 225.149277,208.037587 223.593946,206.388309 C222.038614,204.739031 221.26096,202.734876 221.26096,200.375783 C221.26096,198.01669 222.038614,196.007315 223.593946,194.347599 C225.149277,192.687883 227.179528,191.858038 229.68476,191.858038 C232.210869,191.858038 234.251558,192.687883 235.806889,194.347599 C237.362221,196.007315 238.139875,198.01669 238.139875,200.375783 C238.139875,202.734876 237.362221,204.739031 235.806889,206.388309 C234.251558,208.037587 232.210869,208.862213 229.68476,208.862213 Z M224.987474,200.375783 C224.987474,201.920676 225.431102,203.173273 226.318372,204.133612 C227.205641,205.093951 228.327759,205.574113 229.68476,205.574113 C231.062637,205.574113 232.195194,205.093951 233.082463,204.133612 C233.969733,203.173273 234.413361,201.920676 234.413361,200.375783 C234.413361,198.810013 233.969733,197.546978 233.082463,196.586639 C232.195194,195.6263 231.062637,195.146138 229.68476,195.146138 C228.327759,195.146138 227.205641,195.6263 226.318372,196.586639 C225.431102,197.546978 224.987474,198.810013 224.987474,200.375783 Z M253.23382,194.363257 L253.23382,185 L256.960334,185 L256.960334,208.48643 L253.515658,208.48643 L253.515658,206.169102 C252.40918,207.964518 250.582476,208.862213 248.035491,208.862213 C245.718151,208.862213 243.886228,208.053244 242.539666,206.435282 C241.193104,204.81732 240.519833,202.797507 240.519833,200.375783 C240.519833,197.954059 241.193104,195.929027 242.539666,194.300626 C243.886228,192.672226 245.718151,191.858038 248.035491,191.858038 C250.394584,191.858038 252.127343,192.693102 253.23382,194.363257 Z M253.390397,200.375783 C253.390397,198.851767 252.978083,197.59917 252.153445,196.617954 C251.328806,195.636738 250.217126,195.146138 248.818372,195.146138 C247.440494,195.146138 246.334033,195.636738 245.498956,196.617954 C244.663879,197.59917 244.246347,198.851767 244.246347,200.375783 C244.246347,201.858045 244.663879,203.094985 245.498956,204.086639 C246.334033,205.078293 247.440494,205.574113 248.818372,205.574113 C250.217126,205.574113 251.328806,205.083512 252.153445,204.102296 C252.978083,203.121081 253.390397,201.878922 253.390397,200.375783 Z M268.515658,191.858038 C270.895628,191.858038 272.821496,192.656568 274.293319,194.253653 C275.765143,195.850739 276.501044,197.860113 276.501044,200.281837 L276.469729,201.440501 L264.100209,201.440501 C264.246347,202.734871 264.716071,203.763044 265.509395,204.525052 C266.302718,205.28706 267.346549,205.668058 268.640919,205.668058 C269.496873,205.668058 270.269308,205.459292 270.958246,205.041754 C271.647185,204.624215 272.137786,204.060546 272.430063,203.350731 L276.187891,203.350731 C275.686845,205.000008 274.752616,206.330893 273.385177,207.343424 C272.017738,208.355955 270.40502,208.862213 268.546973,208.862213 C266.125249,208.862213 264.168066,208.058463 262.675365,206.450939 C261.182665,204.843416 260.436326,202.807946 260.436326,200.344468 C260.436326,197.943621 261.187884,195.929027 262.691023,194.300626 C264.194162,192.672226 266.135687,191.858038 268.515658,191.858038 Z M268.515658,194.895616 C267.346549,194.895616 266.375787,195.24008 265.60334,195.929019 C264.830894,196.617958 264.350732,197.536529 264.162839,198.68476 L272.805846,198.68476 C272.63883,197.536529 272.179544,196.617958 271.427975,195.929019 C270.676405,195.24008 269.705643,194.895616 268.515658,194.895616 Z" id="ycode-filled"></path>
        </g>
    </g>
</svg>